<svg width="1600" height="1201" viewBox="0 0 1600 1201" fill="none" xmlns="http://www.w3.org/2000/svg">
<g clip-path="url(#clip0_1320_13)">
<rect width="1600" height="1200" transform="translate(0 0.845215)" fill="white"/>
<rect y="0.845215" width="1600" height="1200" fill="#D1DADB"/>
<g opacity="0.7" filter="url(#filter0_f_1320_13)">
<rect x="94" y="1074" width="1351" height="79" rx="39.5" fill="#092629"/>
</g>
<rect x="81.5" y="88.3452" width="1438" height="1025" rx="19.5" fill="url(#paint0_linear_1320_13)" stroke="white"/>
<mask id="mask0_1320_13" style="mask-type:alpha" maskUnits="userSpaceOnUse" x="81" y="87" width="1439" height="1027">
<rect x="81.5" y="88.3452" width="1438" height="1025" rx="19.5" fill="url(#paint1_linear_1320_13)" stroke="white"/>
</mask>
<g mask="url(#mask0_1320_13)">
<path d="M1403.01 298.162C1457.44 404.604 1440.6 534.856 1369.24 659.447C1297.87 784.032 1172.02 902.894 1008.58 986.472C845.146 1070.05 675.106 1102.5 532.324 1087.42C389.536 1072.34 274.075 1009.75 219.643 903.307C165.211 796.865 182.055 666.612 253.42 542.022C324.782 417.436 450.632 298.574 614.071 214.996C777.509 131.418 947.549 98.9686 1090.33 114.046C1233.12 129.125 1348.58 191.72 1403.01 298.162Z" stroke="#73E4A0"/>
<path d="M1526.77 229.381C1591.5 355.972 1572.89 510.136 1490.35 657.095C1407.81 804.05 1261.36 943.743 1070.57 1041.31C879.768 1138.88 680.783 1175.83 513.321 1156.72C345.853 1137.61 209.971 1062.45 145.236 935.862C80.5003 809.271 99.1122 655.107 181.656 508.148C264.197 361.192 410.642 221.499 601.439 123.93C792.237 26.3612 991.221 -10.5895 1158.68 8.51998C1326.15 27.63 1462.03 102.79 1526.77 229.381Z" stroke="url(#paint2_linear_1320_13)"/>
<ellipse cx="800.5" cy="1159.85" rx="901.5" ry="373" fill="#202020"/>
<path d="M1702 1270.85C1702 1064.84 1298.38 897.845 800.5 897.845C302.615 897.845 -101 1064.84 -101 1270.85" stroke="#545454"/>
</g>
<circle cx="792.5" cy="598.345" r="222.5" fill="#FFC247"/>
<g filter="url(#filter1_bd_1320_13)">
<ellipse cx="1052.54" cy="1015.96" rx="42.5566" ry="55.2952" transform="rotate(70.6777 1052.54 1015.96)" fill="white" fill-opacity="0.4" shape-rendering="crispEdges"/>
<path d="M1066.29 1055.18C1037.74 1065.19 1008.82 1055.37 1001.3 1033.93C993.781 1012.48 1010.24 986.755 1038.79 976.747C1067.33 966.739 1096.25 976.554 1103.77 997.997C1111.29 1019.44 1094.83 1045.17 1066.29 1055.18Z" stroke="url(#paint3_linear_1320_13)" stroke-width="2" shape-rendering="crispEdges"/>
</g>
<circle cx="155.5" cy="687.345" r="14.5" fill="#4FC27E"/>
<circle cx="1252" cy="252.845" r="7" fill="#FF5777"/>
<circle cx="504" cy="313.845" r="7" fill="#FFC247"/>
<circle cx="1457.5" cy="779.345" r="12.5" fill="#4FC27E"/>
<circle cx="200.5" cy="401.345" r="20.5" fill="url(#paint4_linear_1320_13)"/>
<circle cx="1115.5" cy="222.345" r="30.5" fill="url(#paint5_linear_1320_13)"/>
</g>
<defs>
<filter id="filter0_f_1320_13" x="-6" y="974" width="1551" height="279" filterUnits="userSpaceOnUse" color-interpolation-filters="sRGB">
<feFlood flood-opacity="0" result="BackgroundImageFix"/>
<feBlend mode="normal" in="SourceGraphic" in2="BackgroundImageFix" result="shape"/>
<feGaussianBlur stdDeviation="50" result="effect1_foregroundBlur_1320_13"/>
</filter>
<filter id="filter1_bd_1320_13" x="978.476" y="951.821" width="149.121" height="139.283" filterUnits="userSpaceOnUse" color-interpolation-filters="sRGB">
<feFlood flood-opacity="0" result="BackgroundImageFix"/>
<feGaussianBlur in="BackgroundImageFix" stdDeviation="10"/>
<feComposite in2="SourceAlpha" operator="in" result="effect1_backgroundBlur_1320_13"/>
<feColorMatrix in="SourceAlpha" type="matrix" values="0 0 0 0 0 0 0 0 0 0 0 0 0 0 0 0 0 0 127 0" result="hardAlpha"/>
<feMorphology radius="7" operator="erode" in="SourceAlpha" result="effect2_dropShadow_1320_13"/>
<feOffset dx="10" dy="20"/>
<feGaussianBlur stdDeviation="9"/>
<feComposite in2="hardAlpha" operator="out"/>
<feColorMatrix type="matrix" values="0 0 0 0 0.508333 0 0 0 0 0.112257 0 0 0 0 0.112257 0 0 0 0.25 0"/>
<feBlend mode="normal" in2="effect1_backgroundBlur_1320_13" result="effect2_dropShadow_1320_13"/>
<feBlend mode="normal" in="SourceGraphic" in2="effect2_dropShadow_1320_13" result="shape"/>
</filter>
<linearGradient id="paint0_linear_1320_13" x1="81" y1="284.845" x2="1520" y2="776.345" gradientUnits="userSpaceOnUse">
<stop stop-color="#E6EFEE"/>
<stop offset="1" stop-color="#E2E9DF"/>
</linearGradient>
<linearGradient id="paint1_linear_1320_13" x1="81" y1="284.845" x2="1520" y2="776.345" gradientUnits="userSpaceOnUse">
<stop stop-color="#E6EFEE"/>
<stop offset="1" stop-color="#E2E9DF"/>
</linearGradient>
<linearGradient id="paint2_linear_1320_13" x1="601.212" y1="123.485" x2="1219.88" y2="1016.16" gradientUnits="userSpaceOnUse">
<stop stop-color="#FFAA85"/>
<stop offset="1" stop-color="#B3D075"/>
</linearGradient>
<linearGradient id="paint3_linear_1320_13" x1="1069.54" y1="1061.21" x2="1054.54" y2="1032.58" gradientUnits="userSpaceOnUse">
<stop stop-color="white"/>
<stop offset="1" stop-color="white" stop-opacity="0"/>
</linearGradient>
<linearGradient id="paint4_linear_1320_13" x1="224.025" y1="421.845" x2="177.311" y2="388.239" gradientUnits="userSpaceOnUse">
<stop stop-color="white"/>
<stop offset="1" stop-color="white" stop-opacity="0"/>
</linearGradient>
<linearGradient id="paint5_linear_1320_13" x1="1150.5" y1="252.845" x2="1081" y2="202.845" gradientUnits="userSpaceOnUse">
<stop stop-color="white"/>
<stop offset="1" stop-color="white" stop-opacity="0"/>
</linearGradient>
<clipPath id="clip0_1320_13">
<rect width="1600" height="1200" fill="white" transform="translate(0 0.845215)"/>
</clipPath>
</defs>
</svg>
